<svg width="64" height="64" viewBox="0 0 64 64" fill="none" xmlns="http://www.w3.org/2000/svg">
<rect width="64" height="64" rx="32" fill="#BC9E7E" fill-opacity="0.13"/>
<path fill-rule="evenodd" clip-rule="evenodd" d="M32.7941 19.4108C32.3022 19.1297 31.6984 19.1297 31.2065 19.4108L20.0065 25.8108C19.2392 26.2492 18.9727 27.2266 19.4111 27.9938C19.7061 28.5101 20.2452 28.7997 20.8 28.8003V40C19.9164 40 19.2 40.7164 19.2 41.6C19.2 42.4837 19.9164 43.2 20.8 43.2H43.2C44.0837 43.2 44.8 42.4837 44.8 41.6C44.8 40.7164 44.0837 40 43.2 40V28.8003C43.7551 28.7999 44.2944 28.5103 44.5895 27.9938C45.0279 27.2266 44.7613 26.2492 43.9941 25.8108L32.7941 19.4108ZM25.6 30.4C24.7164 30.4 24 31.1164 24 32V36.8C24 37.6837 24.7164 38.4 25.6 38.4C26.4837 38.4 27.2 37.6837 27.2 36.8V32C27.2 31.1164 26.4837 30.4 25.6 30.4ZM30.4 32C30.4 31.1164 31.1164 30.4 32 30.4C32.8837 30.4 33.6 31.1164 33.6 32V36.8C33.6 37.6837 32.8837 38.4 32 38.4C31.1164 38.4 30.4 37.6837 30.4 36.8V32ZM38.4 30.4C37.5164 30.4 36.8 31.1164 36.8 32V36.8C36.8 37.6837 37.5164 38.4 38.4 38.4C39.2837 38.4 40 37.6837 40 36.8V32C40 31.1164 39.2837 30.4 38.4 30.4Z" fill="#BC9E7E"/>
</svg>
