<svg width="64" height="64" viewBox="0 0 64 64" fill="none" xmlns="http://www.w3.org/2000/svg">
<rect width="64" height="64" rx="32" fill="#BC9E7E" fill-opacity="0.13"/>
<path fill-rule="evenodd" clip-rule="evenodd" d="M19.4657 23.9983C24.2789 23.933 28.6644 22.0965 31.9999 19.1111C35.3355 22.0965 39.721 23.933 44.5342 23.9983C44.709 25.0395 44.7999 26.1092 44.7999 27.2001C44.7999 35.5598 39.4572 42.6717 32 45.3075C24.5427 42.6717 19.2 35.5598 19.2 27.2001C19.2 26.1092 19.2909 25.0395 19.4657 23.9983ZM38.2142 30.2142C38.9952 29.4332 38.9952 28.1668 38.2142 27.3858C37.4331 26.6048 36.1668 26.6048 35.3857 27.3858L30.4 32.3716L28.6142 30.5858C27.8331 29.8048 26.5668 29.8048 25.7857 30.5858C25.0047 31.3668 25.0047 32.6332 25.7857 33.4142L28.9857 36.6142C29.3608 36.9893 29.8695 37.2 30.4 37.2C30.9304 37.2 31.4391 36.9893 31.8142 36.6142L38.2142 30.2142Z" fill="#BC9E7E"/>
</svg>
