<svg width="64" height="64" viewBox="0 0 64 64" fill="none" xmlns="http://www.w3.org/2000/svg">
<rect width="64" height="64" rx="32" fill="#BC9E7E" fill-opacity="0.13"/>
<path fill-rule="evenodd" clip-rule="evenodd" d="M32 44.8C39.0693 44.8 44.8 39.0693 44.8 32C44.8 24.9308 39.0693 19.2 32 19.2C24.9308 19.2 19.2 24.9308 19.2 32C19.2 39.0693 24.9308 44.8 32 44.8ZM33.6 25.6C33.6 24.7164 32.8837 24 32 24C31.1164 24 30.4 24.7164 30.4 25.6V32C30.4 32.4244 30.5686 32.8313 30.8686 33.1314L35.3941 37.6569C36.019 38.2817 37.032 38.2817 37.6569 37.6569C38.2817 37.032 38.2817 36.019 37.6569 35.3941L33.6 31.3373V25.6Z" fill="#BC9E7E"/>
</svg>
