<svg width="16" height="17" viewBox="0 0 16 17" fill="none" xmlns="http://www.w3.org/2000/svg">
<path d="M11.7712 11.6046C11.2494 12.1263 10.2519 13.1239 9.41377 13.962C8.63273 14.743 7.36723 14.7431 6.58618 13.962C5.76379 13.1396 4.78304 12.1589 4.22872 11.6046C2.14593 9.52177 2.14593 6.14489 4.22872 4.0621C6.31152 1.9793 9.6884 1.9793 11.7712 4.0621C13.854 6.14489 13.854 9.52177 11.7712 11.6046Z" stroke="#111827" stroke-linecap="round" stroke-linejoin="round"/>
<path d="M9.99996 7.83333C9.99996 8.9379 9.10453 9.83333 7.99996 9.83333C6.89539 9.83333 5.99996 8.9379 5.99996 7.83333C5.99996 6.72876 6.89539 5.83333 7.99996 5.83333C9.10453 5.83333 9.99996 6.72876 9.99996 7.83333Z" stroke="#111827" stroke-linecap="round" stroke-linejoin="round"/>
</svg>
