<svg width="64" height="64" viewBox="0 0 64 64" fill="none" xmlns="http://www.w3.org/2000/svg">
<rect width="64" height="64" rx="32" fill="#BC9E7E" fill-opacity="0.13"/>
<path fill-rule="evenodd" clip-rule="evenodd" d="M32 44C38.6274 44 44 38.6274 44 32C44 25.3726 38.6274 20 32 20C25.3726 20 20 25.3726 20 32C20 38.6274 25.3726 44 32 44ZM23.4977 29.0411C24.0581 27.4304 25.0634 26.028 26.3663 24.9808C26.7681 25.5945 27.4617 25.9999 28.25 25.9999C29.4927 25.9999 30.5 27.0072 30.5 28.2499V28.9999C30.5 30.6567 31.8432 31.9999 33.5 31.9999C35.1569 31.9999 36.5 30.6567 36.5 28.9999C36.5 27.5897 37.473 26.4068 38.7842 26.0858C40.1642 27.6674 41 29.736 41 31.9999C41 32.511 40.9574 33.0122 40.8755 33.5001H39.5C37.8431 33.5001 36.5 34.8433 36.5 36.5001V39.7959C35.1762 40.5616 33.6391 40.9999 31.9999 40.9999V38C31.9999 36.3431 30.6567 35 28.9999 35C27.343 35 25.9999 33.6569 25.9999 32C25.9999 30.5127 24.9176 29.2782 23.4977 29.0411Z" fill="#BC9E7E"/>
</svg>
