<svg width="92" height="16" viewBox="0 0 92 16" fill="none" xmlns="http://www.w3.org/2000/svg">
<path d="M8 0L10.3511 4.76393L15.6085 5.52786L11.8042 9.23607L12.7023 14.4721L8 12L3.29772 14.4721L4.19577 9.23607L0.391548 5.52786L5.64886 4.76393L8 0Z" fill="#FD9435"/>
<path d="M27 0L29.3511 4.76393L34.6085 5.52786L30.8042 9.23607L31.7023 14.4721L27 12L22.2977 14.4721L23.1958 9.23607L19.3915 5.52786L24.6489 4.76393L27 0Z" fill="#FD9435"/>
<path d="M46 0L48.3511 4.76393L53.6085 5.52786L49.8042 9.23607L50.7023 14.4721L46 12L41.2977 14.4721L42.1958 9.23607L38.3915 5.52786L43.6489 4.76393L46 0Z" fill="#FD9435"/>
<path d="M65 0L67.3511 4.76393L72.6085 5.52786L68.8042 9.23607L69.7023 14.4721L65 12L60.2977 14.4721L61.1958 9.23607L57.3915 5.52786L62.6489 4.76393L65 0Z" fill="#FD9435"/>
<path d="M84 0L86.3511 4.76393L91.6085 5.52786L87.8042 9.23607L88.7023 14.4721L84 12L79.2977 14.4721L80.1958 9.23607L76.3915 5.52786L81.6489 4.76393L84 0Z" fill="#FD9435"/>
</svg>
