<svg width="64" height="64" viewBox="0 0 64 64" fill="none" xmlns="http://www.w3.org/2000/svg">
<rect width="64" height="64" rx="32" fill="#BC9E7E" fill-opacity="0.13"/>
<path fill-rule="evenodd" clip-rule="evenodd" d="M18 23.6188C18 23.2767 18.283 23 18.6328 23H20.2196C20.5681 23 20.8524 23.2768 20.8524 23.6188V33.2097H43.1476V28.1822C43.1476 27.8402 43.4319 27.5634 43.7804 27.5634H45.3672C45.717 27.5634 46 27.8402 46 28.1822V40.3256C46 40.6677 45.717 40.9444 45.3672 40.9444H43.7804C43.4319 40.9444 43.1476 40.6676 43.1476 40.3256V38.1599H20.8524V40.3812C20.8524 40.7233 20.5681 41 20.2196 41H18.6328C18.283 41 18 40.7232 18 40.3812V23.6188ZM29.3898 27.022C28.3418 27.022 27.4915 27.8535 27.4915 28.8783V32.2816H42.2033V30.1159C42.2033 28.407 40.787 27.022 39.0395 27.022H29.3898ZM26.8587 29.8065C26.8587 31.1734 25.7255 32.2816 24.3277 32.2816C22.9299 32.2816 21.7966 31.1734 21.7966 29.8065C21.7966 28.4396 22.9299 27.3314 24.3277 27.3314C25.7255 27.3314 26.8587 28.4396 26.8587 29.8065Z" fill="#BC9E7E"/>
</svg>
