<svg width="64" height="64" viewBox="0 0 64 64" fill="none" xmlns="http://www.w3.org/2000/svg">
<rect width="64" height="64" rx="32" fill="#BC9E7E" fill-opacity="0.13"/>
<path d="M32.6334 20.3915C32.4348 20.1501 32.1663 20 31.8782 20C31.5901 20 31.3216 20.1501 31.1219 20.3915C30.8992 20.6622 30.7606 21.0461 30.7606 21.4767C30.7606 21.9073 30.8992 22.2911 31.1219 22.5619C31.3205 22.8033 31.589 22.9534 31.8771 22.9534C32.1663 22.9534 32.4337 22.8033 32.6334 22.5619C32.856 22.2911 32.9946 21.9073 32.9946 21.4767C32.9946 21.0461 32.856 20.6622 32.6334 20.3915ZM18.568 39.4023H45.1884V37.3015C45.1884 33.6554 43.6911 30.34 41.2781 27.9358C38.8662 25.5326 35.5375 24.0397 31.8782 24.0397C28.2189 24.0397 24.8913 25.5316 22.4783 27.9358C20.0653 30.34 18.568 33.6554 18.568 37.3015V39.4023ZM46.4118 40.4897H45.7494H18.0092H17.3456C16.9757 40.4897 16.6395 40.6408 16.3962 40.8844C16.1517 41.1258 16 41.4607 16 41.8305C16 42.1991 16.1517 42.534 16.3962 42.7765C16.6395 43.019 16.9768 43.1712 17.3456 43.1712H46.4118C46.7709 43.1712 47.0983 43.0298 47.3493 42.7895C47.6047 42.534 47.7575 42.198 47.7575 41.8305C47.7575 41.4727 47.6156 41.1476 47.3744 40.8964C47.1179 40.6419 46.7818 40.4897 46.4118 40.4897Z" fill="#BC9E7E"/>
</svg>
