<svg width="140" height="24" viewBox="0 0 140 24" fill="none" xmlns="http://www.w3.org/2000/svg">
<g clip-path="url(#clip0_3_87)">
<mask id="mask0_3_87" style="mask-type:luminance" maskUnits="userSpaceOnUse" x="0" y="0" width="24" height="24">
<path d="M24 0H0V24H24V0Z" fill="white"/>
</mask>
<g mask="url(#mask0_3_87)">
<path fill-rule="evenodd" clip-rule="evenodd" d="M5.24537e-07 3.31849e-07L9.04826e-07 6L12 12L2.62268e-07 18L0 24L12 18V24L24 18V12V6L12 0V6L5.24537e-07 3.31849e-07ZM12 6V12V18L24 12L12 6Z" fill="#1C5C45"/>
</g>
</g>
<path d="M42.71 6.185V18H40.772V12.832H35.213V18H33.275V6.185H35.213V11.251H40.772V6.185H42.71ZM49.3243 18.153C48.4403 18.153 47.6413 17.9547 46.9273 17.558C46.2133 17.15 45.6523 16.5833 45.2443 15.858C44.8363 15.1213 44.6323 14.2713 44.6323 13.308C44.6323 12.356 44.842 11.5117 45.2613 10.775C45.6807 10.0383 46.253 9.47167 46.9783 9.075C47.7037 8.67833 48.514 8.48 49.4093 8.48C50.3047 8.48 51.115 8.67833 51.8403 9.075C52.5657 9.47167 53.138 10.0383 53.5573 10.775C53.9767 11.5117 54.1863 12.356 54.1863 13.308C54.1863 14.26 53.971 15.1043 53.5403 15.841C53.1097 16.5777 52.5203 17.15 51.7723 17.558C51.0357 17.9547 50.2197 18.153 49.3243 18.153ZM49.3243 16.47C49.823 16.47 50.2877 16.351 50.7183 16.113C51.1603 15.875 51.5173 15.518 51.7893 15.042C52.0613 14.566 52.1973 13.988 52.1973 13.308C52.1973 12.628 52.067 12.0557 51.8063 11.591C51.5457 11.115 51.2 10.758 50.7693 10.52C50.3387 10.282 49.874 10.163 49.3753 10.163C48.8767 10.163 48.412 10.282 47.9813 10.52C47.562 10.758 47.2277 11.115 46.9783 11.591C46.729 12.0557 46.6043 12.628 46.6043 13.308C46.6043 14.3167 46.8593 15.0987 47.3693 15.654C47.8907 16.198 48.5423 16.47 49.3243 16.47ZM58.3631 10.214V15.399C58.3631 15.7503 58.4425 16.0053 58.6011 16.164C58.7711 16.3113 59.0545 16.385 59.4511 16.385H60.6411V18H59.1111C58.2385 18 57.5698 17.796 57.1051 17.388C56.6405 16.98 56.4081 16.317 56.4081 15.399V10.214H55.3031V8.633H56.4081V6.304H58.3631V8.633H60.6411V10.214H58.3631ZM71.0123 13.087C71.0123 13.4383 70.9897 13.7557 70.9443 14.039H63.7873C63.844 14.787 64.1217 15.3877 64.6203 15.841C65.119 16.2943 65.731 16.521 66.4563 16.521C67.499 16.521 68.2357 16.0847 68.6663 15.212H70.7573C70.474 16.0733 69.9583 16.7817 69.2103 17.337C68.4737 17.881 67.5557 18.153 66.4563 18.153C65.561 18.153 64.7563 17.9547 64.0423 17.558C63.3397 17.15 62.7843 16.5833 62.3763 15.858C61.9797 15.1213 61.7813 14.2713 61.7813 13.308C61.7813 12.3447 61.974 11.5003 62.3593 10.775C62.756 10.0383 63.3057 9.47167 64.0083 9.075C64.7223 8.67833 65.5383 8.48 66.4563 8.48C67.3403 8.48 68.128 8.67267 68.8193 9.058C69.5107 9.44333 70.049 9.98733 70.4343 10.69C70.8197 11.3813 71.0123 12.1803 71.0123 13.087ZM68.9893 12.475C68.978 11.761 68.723 11.1887 68.2243 10.758C67.7257 10.3273 67.108 10.112 66.3713 10.112C65.7027 10.112 65.1303 10.3273 64.6543 10.758C64.1783 11.1773 63.895 11.7497 63.8043 12.475H68.9893ZM74.8575 5.42V18H72.9195V5.42H74.8575ZM86.837 6.185V18H84.899V12.832H79.34V18H77.402V6.185H79.34V11.251H84.899V6.185H86.837ZM93.4513 18.153C92.5673 18.153 91.7683 17.9547 91.0543 17.558C90.3403 17.15 89.7793 16.5833 89.3713 15.858C88.9633 15.1213 88.7593 14.2713 88.7593 13.308C88.7593 12.356 88.9689 11.5117 89.3883 10.775C89.8076 10.0383 90.3799 9.47167 91.1053 9.075C91.8306 8.67833 92.6409 8.48 93.5363 8.48C94.4316 8.48 95.2419 8.67833 95.9673 9.075C96.6926 9.47167 97.2649 10.0383 97.6843 10.775C98.1036 11.5117 98.3133 12.356 98.3133 13.308C98.3133 14.26 98.0979 15.1043 97.6673 15.841C97.2366 16.5777 96.6473 17.15 95.8993 17.558C95.1626 17.9547 94.3466 18.153 93.4513 18.153ZM93.4513 16.47C93.9499 16.47 94.4146 16.351 94.8453 16.113C95.2873 15.875 95.6443 15.518 95.9163 15.042C96.1883 14.566 96.3243 13.988 96.3243 13.308C96.3243 12.628 96.1939 12.0557 95.9333 11.591C95.6726 11.115 95.3269 10.758 94.8963 10.52C94.4656 10.282 94.0009 10.163 93.5023 10.163C93.0036 10.163 92.5389 10.282 92.1083 10.52C91.6889 10.758 91.3546 11.115 91.1053 11.591C90.8559 12.0557 90.7313 12.628 90.7313 13.308C90.7313 14.3167 90.9863 15.0987 91.4963 15.654C92.0176 16.198 92.6693 16.47 93.4513 16.47ZM102.167 9.993C102.45 9.517 102.824 9.14867 103.289 8.888C103.765 8.616 104.326 8.48 104.972 8.48V10.486H104.479C103.72 10.486 103.142 10.6787 102.745 11.064C102.36 11.4493 102.167 12.118 102.167 13.07V18H100.229V8.633H102.167V9.993ZM107.74 7.392C107.388 7.392 107.094 7.273 106.856 7.035C106.618 6.797 106.499 6.50233 106.499 6.151C106.499 5.79967 106.618 5.505 106.856 5.267C107.094 5.029 107.388 4.91 107.74 4.91C108.08 4.91 108.369 5.029 108.607 5.267C108.845 5.505 108.964 5.79967 108.964 6.151C108.964 6.50233 108.845 6.797 108.607 7.035C108.369 7.273 108.08 7.392 107.74 7.392ZM108.692 8.633V18H106.754V8.633H108.692ZM112.953 16.419H117.203V18H110.709V16.419L114.976 10.214H110.709V8.633H117.203V10.214L112.953 16.419ZM123.301 18.153C122.417 18.153 121.618 17.9547 120.904 17.558C120.19 17.15 119.629 16.5833 119.221 15.858C118.813 15.1213 118.609 14.2713 118.609 13.308C118.609 12.356 118.819 11.5117 119.238 10.775C119.657 10.0383 120.23 9.47167 120.955 9.075C121.68 8.67833 122.491 8.48 123.386 8.48C124.281 8.48 125.092 8.67833 125.817 9.075C126.542 9.47167 127.115 10.0383 127.534 10.775C127.953 11.5117 128.163 12.356 128.163 13.308C128.163 14.26 127.948 15.1043 127.517 15.841C127.086 16.5777 126.497 17.15 125.749 17.558C125.012 17.9547 124.196 18.153 123.301 18.153ZM123.301 16.47C123.8 16.47 124.264 16.351 124.695 16.113C125.137 15.875 125.494 15.518 125.766 15.042C126.038 14.566 126.174 13.988 126.174 13.308C126.174 12.628 126.044 12.0557 125.783 11.591C125.522 11.115 125.177 10.758 124.746 10.52C124.315 10.282 123.851 10.163 123.352 10.163C122.853 10.163 122.389 10.282 121.958 10.52C121.539 10.758 121.204 11.115 120.955 11.591C120.706 12.0557 120.581 12.628 120.581 13.308C120.581 14.3167 120.836 15.0987 121.346 15.654C121.867 16.198 122.519 16.47 123.301 16.47ZM134.805 8.48C135.541 8.48 136.199 8.633 136.777 8.939C137.366 9.245 137.825 9.69833 138.154 10.299C138.482 10.8997 138.647 11.625 138.647 12.475V18H136.726V12.764C136.726 11.9253 136.516 11.285 136.097 10.843C135.677 10.3897 135.105 10.163 134.38 10.163C133.654 10.163 133.076 10.3897 132.646 10.843C132.226 11.285 132.017 11.9253 132.017 12.764V18H130.079V8.633H132.017V9.704C132.334 9.31867 132.736 9.01833 133.224 8.803C133.722 8.58767 134.249 8.48 134.805 8.48Z" fill="#212121"/>
<defs>
<clipPath id="clip0_3_87">
<rect width="24" height="24" fill="white"/>
</clipPath>
</defs>
</svg>
